<?xml version="1.0" ?><!DOCTYPE svg  PUBLIC '-//W3C//DTD SVG 1.1//EN'  'http://www.w3.org/Graphics/SVG/1.1/DTD/svg11.dtd'><svg enable-background="new 0 0 24 24" height="24px" id="Layer_1" version="1.1" viewBox="0 0 24 24" width="24px" xml:space="preserve" xmlns="http://www.w3.org/2000/svg" xmlns:xlink="http://www.w3.org/1999/xlink"><g><path d="M18.8,16.4c-0.5,1.1-1.2,2.1-2.1,2.9c-1,1-2.3,1.7-3.7,2.1c-0.8,0.2-1.7,0.4-2.6,0.4c-2.8,0-5.5-1.2-7.4-3.4   c-0.5-0.6-1-1.3-1.4-2.1c0,0,0,0,0,0l0,0c-0.6-1.3-1-2.6-1-4l0-0.3l0-0.3c0-1.4,0.4-2.8,1-4.1C1.9,6.9,2.4,6.2,3,5.6   c1.9-2.1,4.5-3.4,7.4-3.4c2.2,0,4.3,0.7,6,2.1l-2.3,2.3C11.9,5,8.7,5.1,6.5,6.7C5.4,7.5,4.5,8.6,4.1,9.9c-0.2,0.6-0.3,1.2-0.3,1.8   c0,0.1,0,0.1,0,0.2c0,0.1,0,0.1,0,0.3c0,0.6,0.1,1.2,0.3,1.7l0,0c0,0,0,0,0,0c0.4,1.3,1.3,2.4,2.4,3.2c0.5,0.3,1,0.6,1.5,0.8   c0.8,0.3,1.6,0.4,2.4,0.4c1.4,0,2.7-0.3,3.7-1c1.1-0.7,1.8-1.7,2.2-3h0.9c0.3,0,0.5-0.2,0.5-0.5c0-0.3-0.2-0.5-0.5-0.5h-1.3h-4.3   h-0.8v-3h8.7c0.1,0.5,0.1,1,0.1,1.4C19.7,13.6,19.4,15.1,18.8,16.4z"/><path d="M22.9,5.4H21V3.6c0-0.3-0.2-0.5-0.5-0.5S20,3.3,20,3.6v1.9h-1.9c-0.3,0-0.5,0.2-0.5,0.5c0,0.3,0.2,0.5,0.5,0.5H20v1.9   c0,0.3,0.2,0.5,0.5,0.5S21,8.6,21,8.3V6.4h1.9c0.3,0,0.5-0.2,0.5-0.5C23.4,5.7,23.2,5.4,22.9,5.4z"/></g></svg>